<?xml version="1.0" encoding="UTF-8" standalone="no"?>
<svg xmlns="http://www.w3.org/2000/svg" version="1.2" baseProfile="tiny" viewBox="0.00 0.00 1080.00 1080.00">
<g stroke-width="2.00" fill="none" stroke-linecap="butt">
<path stroke="currentColor" vector-effect="non-scaling-stroke" d="
  M 709.82 335.24
  C 715.05 318.97 719.03 299.48 718.17 282.51
  C 716.32 245.92 697.42 211.65 663.97 195.36
  Q 655.90 191.43 647.72 187.77
  Q 616.27 173.67 592.57 149.11
  A 1.64 1.63 61.5 0 0 591.04 148.65
  C 571.39 153.06 552.20 164.39 532.66 176.42
  C 522.99 182.37 514.02 187.28 504.24 189.41
  Q 492.21 192.02 480.39 193.39
  A 3.55 3.51 54.3 0 1 478.44 193.06
  C 462.63 185.34 449.34 178.59 430.48 171.85
  Q 423.12 169.23 415.50 167.53
  Q 413.81 167.15 412.42 168.42
  C 392.91 186.33 375.43 200.15 370.87 224.27
  C 368.46 237.01 367.86 249.10 361.65 260.81
  C 356.74 270.06 348.74 278.00 344.62 286.97
  C 338.56 300.17 338.14 313.18 341.10 327.57
  Q 341.32 328.62 340.35 328.18
  C 322.27 319.89 300.87 313.00 282.55 325.31
  C 273.32 331.52 263.51 342.17 260.36 353.34
  A 1.48 1.48 0.0 0 1 258.85 354.42
  C 244.78 353.59 230.90 351.42 216.96 349.34
  Q 216.39 349.25 216.39 349.83
  Q 216.32 365.39 213.15 376.87
  Q 210.57 386.27 208.36 395.76
  C 204.75 411.31 206.23 425.24 209.98 440.74
  Q 211.58 447.33 211.22 458.25
  Q 210.84 469.63 210.38 481.01
  C 209.59 500.66 214.74 517.32 222.22 535.15
  A 2.39 2.36 44.7 0 1 222.24 536.93
  C 215.08 555.07 211.40 574.40 209.19 593.74
  C 203.42 644.42 215.63 696.03 241.02 739.97
  C 250.87 757.01 262.49 773.76 276.13 787.99
  C 298.38 811.19 324.95 830.59 353.40 845.49
  C 362.46 850.23 370.73 854.44 380.76 859.11
  C 417.11 876.01 453.40 895.26 484.88 920.87
  Q 497.06 930.78 505.39 943.01
  C 508.78 948.00 511.47 950.61 517.25 951.00
  Q 534.90 952.19 553.95 951.00
  C 558.81 950.70 565.15 949.53 567.14 945.55
  C 577.42 924.94 597.39 911.05 616.69 899.26
  Q 658.76 873.54 703.53 852.83
  Q 765.81 824.02 812.34 770.34
  Q 827.42 752.94 838.45 735.20
  C 873.89 678.19 880.70 610.71 859.60 546.71
  C 859.32 545.86 859.43 544.46 859.81 543.63
  C 866.80 528.46 870.40 510.68 868.38 494.01
  C 866.43 477.87 863.66 462.47 866.23 446.19
  C 867.77 436.38 871.81 426.45 873.14 417.21
  Q 875.31 402.25 871.97 387.50
  C 867.67 368.44 861.04 348.11 857.90 327.93
  A 0.93 0.92 77.8 0 0 856.74 327.18
  C 838.98 332.03 821.71 335.49 803.26 336.73
  A 1.13 1.12 -9.9 0 1 802.10 335.92
  Q 799.44 326.64 793.09 319.15
  C 783.01 307.27 765.51 295.33 749.16 299.58
  C 746.99 300.14 744.86 301.36 743.33 302.83
  Q 726.39 319.14 710.70 335.76
  Q 709.12 337.44 709.82 335.24"
/>
<path stroke="transparent" vector-effect="non-scaling-stroke" d="
  M 767.23 216.72
  C 757.32 225.69 751.96 240.71 750.78 253.66
  Q 750.70 254.58 751.47 254.07
  C 762.99 246.51 773.47 238.17 784.03 229.48
  A 0.19 0.19 0.0 0 0 784.05 229.20
  Q 777.11 221.98 768.67 216.60
  A 1.19 1.19 0.0 0 0 767.23 216.72"
/>
<path stroke="transparent" vector-effect="non-scaling-stroke" d="
  M 307.08 225.44
  C 305.58 222.32 304.57 218.91 300.50 219.59
  C 294.56 220.59 288.85 225.46 284.58 229.40
  A 0.50 0.50 0.0 0 0 284.60 230.16
  Q 299.82 242.64 315.81 254.11
  Q 316.28 254.45 316.44 253.86
  A 0.37 0.36 -43.7 0 0 316.45 253.64
  Q 313.56 238.95 307.08 225.44"
/>
<path stroke="transparent" vector-effect="non-scaling-stroke" d="
  M 804.79 245.88
  C 799.96 247.36 793.96 251.54 789.72 254.37
  C 782.41 259.26 776.85 263.18 771.73 269.20
  Q 771.27 269.74 771.17 270.21
  A 0.73 0.73 0.0 0 0 771.95 271.08
  Q 790.90 269.21 809.39 264.62
  A 1.02 1.02 0.0 0 0 810.13 263.40
  L 806.05 246.60
  A 1.00 0.99 74.5 0 0 804.79 245.88"
/>
<path stroke="transparent" vector-effect="non-scaling-stroke" d="
  M 292.46 277.45
  C 292.60 274.46 293.49 272.19 290.67 270.07
  C 281.65 263.31 271.12 256.65 260.26 253.43
  A 0.46 0.45 12.1 0 0 259.68 253.80
  L 257.09 272.88
  A 0.69 0.69 0.0 0 0 257.67 273.65
  L 291.17 278.51
  Q 292.40 278.69 292.46 277.45"
/>
<path stroke="transparent" vector-effect="non-scaling-stroke" d="
  M 550.13 204.78
  Q 550.06 204.61 550.18 204.74
  C 561.11 215.84 569.49 228.26 578.09 241.18
  Q 579.51 243.31 581.99 243.98
  Q 593.64 247.14 605.05 251.24
  A 0.36 0.35 3.7 0 0 605.52 250.83
  Q 604.55 246.55 601.91 242.85
  Q 591.60 228.41 581.27 213.97
  Q 581.13 213.76 581.29 213.60
  A 0.19 0.19 0.0 0 1 581.53 213.58
  C 591.15 220.25 601.18 227.84 608.51 237.06
  Q 608.82 237.46 608.84 236.95
  Q 609.79 213.66 605.24 190.78
  Q 604.69 187.99 605.86 190.58
  C 613.25 206.82 616.97 225.16 618.65 243.02
  C 618.73 243.90 618.47 244.95 618.51 245.94
  Q 618.56 246.95 619.24 246.20
  L 632.84 231.29
  Q 633.33 230.76 633.15 231.46
  Q 629.74 244.47 623.32 256.28
  A 0.53 0.53 0.0 0 0 623.57 257.02
  L 637.11 262.73
  Q 637.53 262.91 637.83 262.58
  Q 639.59 260.65 641.06 257.78
  Q 647.76 244.65 654.95 229.17
  Q 655.38 228.22 655.27 229.26
  Q 653.07 249.64 649.58 270.51
  Q 648.89 274.65 649.45 275.76
  Q 652.52 281.80 655.21 287.93
  A 0.21 0.21 0.0 0 0 655.60 287.93
  L 674.00 245.32
  A 0.07 0.07 0.0 0 1 674.14 245.35
  Q 673.07 273.59 665.43 300.79
  A 3.00 2.97 -56.6 0 0 665.96 303.43
  L 671.68 310.64
  Q 672.00 311.05 672.24 310.59
  C 678.82 297.98 684.52 284.87 690.33 272.04
  Q 690.89 270.79 690.82 272.16
  C 690.45 278.86 690.45 286.15 689.62 292.26
  Q 687.48 308.04 681.59 322.95
  A 1.34 1.33 38.0 0 0 681.75 324.21
  L 689.28 334.63
  A 0.27 0.26 -52.2 0 0 689.74 334.57
  C 694.87 321.72 697.62 307.94 700.10 294.33
  C 703.51 275.68 697.96 258.25 688.84 242.02
  C 679.93 226.14 666.65 215.14 649.44 207.91
  Q 631.57 200.40 625.55 196.72
  Q 605.31 184.37 587.14 168.97
  A 2.00 1.97 -34.7 0 0 585.19 168.63
  Q 578.77 170.97 572.61 174.33
  C 551.67 185.77 531.38 198.08 509.99 208.73
  Q 509.49 208.98 509.93 209.32
  Q 517.04 214.97 524.16 220.60
  Q 538.07 231.58 548.53 245.56
  A 1.22 1.21 -31.9 0 0 550.05 245.91
  Q 556.64 242.56 563.92 241.10
  Q 565.10 240.86 564.64 239.74
  L 550.13 204.78"
/>
<path stroke="transparent" vector-effect="non-scaling-stroke" d="
  M 396.99 263.33
  Q 395.51 259.69 397.82 262.87
  Q 407.16 275.69 417.40 287.81
  Q 418.14 288.69 418.09 287.54
  C 417.91 283.63 416.89 279.29 416.54 275.80
  Q 415.62 266.66 414.80 257.50
  C 413.45 242.24 414.13 228.31 414.64 214.03
  Q 414.77 210.32 415.33 213.99
  C 417.46 227.83 419.43 242.33 422.36 256.48
  C 423.21 260.56 423.63 264.65 424.86 268.66
  Q 425.31 270.16 425.78 268.67
  C 428.99 258.43 435.07 248.36 441.31 239.83
  Q 443.20 237.25 442.24 240.30
  Q 437.16 256.43 431.97 274.11
  Q 430.30 279.79 431.36 284.46
  Q 433.73 294.99 436.84 305.32
  A 0.55 0.55 0.0 0 0 437.56 305.67
  L 447.14 301.86
  A 1.82 1.82 0.0 0 0 448.29 300.26
  C 449.84 273.23 456.34 246.81 463.91 221.16
  Q 464.25 220.01 464.25 221.21
  Q 464.26 250.41 461.19 279.72
  C 460.63 285.10 460.55 291.13 459.96 296.80
  A 0.30 0.30 0.0 0 0 460.38 297.11
  L 470.84 292.59
  A 2.64 2.64 0.0 0 0 472.34 290.90
  Q 475.44 280.12 479.56 269.71
  Q 479.75 269.22 479.79 269.74
  L 481.06 287.21
  Q 481.11 287.93 481.76 287.61
  L 499.36 278.81
  Q 499.78 278.59 499.83 278.12
  Q 501.62 260.64 508.09 244.30
  Q 508.31 243.73 508.30 244.34
  Q 507.89 262.40 507.97 280.75
  Q 507.98 282.50 509.34 282.95
  A 1.13 1.13 0.0 0 0 510.56 282.60
  L 531.32 257.56
  A 2.35 2.33 -40.5 0 0 531.54 254.88
  C 525.93 245.35 516.30 236.66 507.40 230.27
  C 496.54 222.47 484.15 216.61 472.07 210.48
  C 455.25 201.94 437.78 194.55 420.21 187.87
  A 1.40 1.39 -53.8 0 0 418.83 188.09
  C 409.28 195.80 398.35 205.88 393.00 216.13
  Q 388.55 224.64 387.36 234.51
  C 385.52 249.85 382.03 262.92 373.96 275.65
  C 370.91 280.46 364.96 287.02 362.25 292.30
  Q 352.31 311.68 362.09 331.24
  Q 363.74 334.54 366.61 336.89
  Q 375.96 344.58 385.31 352.13
  A 0.51 0.50 -45.4 0 0 385.95 352.12
  C 388.30 350.07 388.75 348.12 386.86 345.42
  C 380.49 336.35 375.09 328.49 370.05 316.83
  Q 368.92 314.23 367.74 312.13
  Q 367.06 310.94 368.15 311.77
  Q 369.39 312.72 370.99 314.25
  Q 382.17 324.90 396.01 337.42
  Q 396.88 338.20 397.65 337.31
  L 402.44 331.76
  A 1.81 1.80 -40.9 0 0 402.60 329.61
  C 393.75 315.56 385.41 302.01 378.59 287.04
  Q 378.03 285.80 379.06 286.69
  Q 396.46 301.65 412.13 318.42
  A 1.06 1.05 -39.8 0 0 413.53 318.54
  L 422.69 311.62
  A 0.90 0.89 56.8 0 0 422.93 310.47
  Q 416.28 298.74 409.36 287.54
  C 404.19 279.19 400.35 271.61 396.99 263.33"
/>
<path stroke="transparent" vector-effect="non-scaling-stroke" d="
  M 632.17 327.51
  Q 631.51 337.65 629.08 347.51
  A 1.42 1.40 -62.6 0 0 629.51 348.90
  L 646.52 363.89
  Q 646.91 364.24 647.26 363.86
  L 663.87 346.32
  Q 664.02 346.15 663.93 346.36
  L 654.03 368.31
  A 1.73 1.73 0.0 0 0 654.40 370.25
  L 665.63 381.29
  A 0.72 0.71 -46.6 0 0 666.66 381.26
  L 681.59 365.13
  A 3.10 3.10 0.0 0 0 682.32 362.25
  C 678.42 346.69 666.35 334.06 655.85 322.65
  C 646.23 312.18 641.04 301.08 632.93 284.51
  Q 630.60 279.75 627.69 278.52
  Q 597.37 265.65 564.98 259.60
  Q 563.67 259.36 563.10 259.62
  C 555.46 263.14 548.62 267.07 542.43 273.18
  Q 534.73 280.80 528.44 289.88
  A 1.12 1.12 0.0 0 0 528.94 291.56
  L 575.99 310.92
  Q 576.60 311.17 576.59 310.51
  L 576.31 281.25
  Q 576.29 279.02 576.85 281.18
  Q 580.48 295.22 584.67 310.03
  C 585.61 313.33 585.90 314.97 588.96 316.94
  Q 600.78 324.55 611.19 334.27
  A 0.61 0.61 0.0 0 0 612.20 333.96
  L 620.45 299.31
  A 0.10 0.10 0.0 0 1 620.65 299.32
  Q 621.90 319.53 618.21 339.39
  A 0.95 0.95 0.0 0 0 618.57 340.31
  L 622.88 343.60
  A 1.21 1.20 31.1 0 0 624.71 343.15
  L 632.01 327.47
  Q 632.20 327.06 632.17 327.51"
/>
<path stroke="transparent" vector-effect="non-scaling-stroke" d="
  M 604.83 411.05
  Q 602.00 418.60 599.63 426.30
  C 597.47 433.30 596.31 441.09 594.73 448.45
  Q 594.33 450.32 595.76 449.06
  C 609.71 436.83 622.89 423.60 636.32 410.81
  Q 643.10 404.35 650.87 396.24
  Q 651.76 395.32 650.83 394.44
  C 643.87 387.83 636.85 381.18 629.36 374.91
  C 613.42 361.54 597.05 348.59 581.58 334.67
  Q 578.40 331.81 576.38 331.07
  Q 538.72 317.24 502.48 300.01
  C 500.94 299.27 499.78 298.98 498.17 299.92
  C 478.06 311.63 456.85 318.72 435.16 326.72
  C 430.03 328.61 426.50 332.58 423.34 336.63
  A 3.43 3.42 55.4 0 0 422.77 339.75
  Q 425.03 347.13 428.21 354.13
  Q 436.77 372.97 444.59 392.14
  Q 448.63 402.06 452.88 410.32
  C 464.63 433.16 476.66 455.91 488.61 478.65
  Q 504.24 508.37 510.12 517.62
  Q 515.32 525.79 520.14 534.43
  A 0.42 0.42 0.0 0 0 520.89 534.41
  C 524.30 527.43 525.28 518.67 526.08 510.99
  Q 527.53 497.26 528.79 483.51
  Q 529.01 481.09 528.12 479.46
  C 514.53 454.44 504.55 428.82 495.95 401.56
  C 488.93 379.28 484.04 356.23 480.92 333.17
  Q 480.75 331.90 481.11 333.13
  C 494.05 376.39 508.99 417.99 530.52 457.81
  Q 532.00 460.56 532.22 457.44
  Q 533.91 433.06 536.21 407.22
  Q 538.92 376.91 543.00 346.74
  Q 543.02 346.66 543.10 346.67
  L 543.35 346.68
  A 0.27 0.27 0.0 0 1 543.60 346.95
  Q 543.55 394.86 542.85 442.76
  C 542.59 460.81 543.10 478.28 543.96 496.00
  Q 544.09 498.71 543.79 500.32
  Q 543.27 503.09 544.83 500.77
  Q 546.10 498.87 548.12 496.61
  C 559.38 483.99 571.05 471.81 583.70 460.55
  C 584.88 459.50 585.80 458.13 586.20 456.75
  Q 589.40 445.85 592.77 434.99
  Q 595.85 425.06 604.73 411.01
  A 0.06 0.05 -20.8 0 1 604.83 411.05"
/>
<path stroke="transparent" vector-effect="non-scaling-stroke" d="
  M 529.10 788.74
  L 503.55 730.10
  Q 502.91 728.62 503.14 730.22
  Q 504.38 738.72 505.66 747.97
  Q 509.99 779.11 518.28 809.44
  Q 527.68 843.85 538.40 877.86
  A 0.35 0.34 54.1 0 0 539.01 877.96
  C 542.05 873.70 544.14 869.35 544.89 864.00
  C 546.42 853.00 545.02 841.36 542.96 830.50
  Q 538.83 808.73 532.37 787.51
  Q 532.31 787.31 532.43 787.15
  L 532.72 786.79
  Q 532.75 786.74 532.78 786.79
  C 542.55 807.33 550.80 827.60 554.82 850.12
  C 555.13 851.85 555.16 853.89 555.26 855.61
  Q 555.36 857.16 556.29 855.91
  Q 563.28 846.57 569.77 836.58
  C 574.41 829.43 574.62 822.09 574.40 813.25
  Q 574.07 800.20 572.45 787.25
  Q 570.14 768.71 564.18 743.57
  Q 564.12 743.32 564.36 743.25
  L 564.61 743.17
  Q 564.69 743.15 564.72 743.22
  C 572.17 763.20 579.41 785.74 582.70 807.41
  C 583.11 810.17 583.20 813.07 583.24 815.82
  Q 583.26 817.13 583.93 816.01
  C 596.19 795.67 607.89 775.67 617.60 753.94
  Q 618.26 752.47 618.01 751.74
  Q 616.34 746.74 612.22 738.76
  Q 604.39 723.62 595.76 708.94
  C 577.43 677.77 558.13 647.20 539.78 616.04
  Q 539.70 615.91 539.83 615.82
  L 539.83 615.82
  Q 539.96 615.73 540.05 615.86
  C 555.94 636.85 572.59 657.31 588.34 678.39
  C 602.09 696.78 615.69 716.49 624.09 738.00
  Q 624.70 739.55 625.19 737.96
  Q 626.34 734.20 627.97 729.73
  Q 634.98 710.35 638.19 690.00
  C 638.61 687.35 638.16 686.37 636.79 684.24
  Q 631.81 676.55 629.66 673.59
  Q 610.79 647.65 592.89 621.04
  Q 592.80 620.90 592.93 620.80
  L 592.93 620.80
  Q 593.06 620.69 593.17 620.81
  C 608.88 637.30 624.70 653.48 638.32 671.58
  Q 639.41 673.02 639.52 671.22
  C 640.58 653.30 639.00 634.45 636.77 616.66
  A 2.34 2.33 -71.0 0 0 636.12 615.32
  Q 623.67 602.60 614.83 587.15
  Q 614.13 585.92 615.15 586.90
  Q 623.88 595.36 633.78 602.45
  Q 634.25 602.79 634.12 602.22
  Q 632.79 596.67 630.49 591.27
  C 622.93 573.59 614.78 556.10 608.34 537.97
  Q 601.58 518.90 599.64 498.75
  Q 599.22 494.43 598.75 490.11
  Q 598.74 490.04 598.81 490.03
  Q 598.84 490.03 598.88 490.02
  Q 599.01 490.01 599.05 490.14
  Q 602.51 501.79 605.74 513.52
  Q 607.56 520.14 616.59 539.87
  Q 624.41 556.95 632.57 573.85
  C 641.73 592.82 647.96 609.27 651.12 628.93
  A 0.52 0.52 0.0 0 0 652.09 629.10
  Q 652.17 628.95 652.23 628.74
  C 657.90 609.03 660.89 591.97 664.79 568.38
  Q 664.81 568.27 664.90 568.26
  Q 664.95 568.26 664.99 568.26
  Q 665.12 568.29 665.13 568.50
  C 666.83 596.11 662.87 622.99 655.75 649.68
  Q 655.00 652.48 655.22 655.39
  C 658.06 693.00 651.17 727.94 637.03 761.74
  Q 621.59 798.63 601.80 833.39
  Q 593.69 847.61 584.91 860.00
  Q 582.78 863.01 585.61 860.64
  C 599.89 848.73 613.77 835.19 626.00 820.78
  C 636.47 808.44 645.21 795.34 652.77 783.24
  C 672.03 752.38 687.95 715.59 695.84 681.46
  C 705.36 640.32 708.11 598.05 703.11 555.32
  C 701.51 541.63 699.39 528.65 699.99 514.90
  A 3.91 3.90 28.5 0 0 699.26 512.45
  C 683.70 490.82 672.14 467.05 675.56 439.51
  Q 677.05 427.53 682.60 417.96
  Q 683.58 416.26 682.94 418.12
  C 676.77 435.84 679.54 455.92 687.58 473.22
  C 693.13 485.15 699.34 492.81 705.85 502.64
  A 0.51 0.50 33.1 0 0 706.77 502.45
  C 712.96 465.99 721.39 430.06 739.77 397.52
  A 0.06 0.06 0.0 0 1 739.88 397.57
  Q 732.60 417.08 728.41 437.74
  C 723.85 460.16 719.66 483.67 723.27 506.53
  A 0.15 0.15 0.0 0 0 723.52 506.61
  C 737.26 493.16 750.60 479.06 765.16 466.53
  Q 766.17 465.67 765.59 466.86
  C 756.68 485.14 745.63 501.60 732.84 517.88
  C 730.88 520.37 729.12 523.31 727.19 525.88
  A 3.84 3.82 57.7 0 0 726.51 528.93
  L 732.34 556.98
  Q 732.47 557.58 732.95 557.20
  Q 760.10 536.13 785.33 512.78
  Q 786.94 511.30 785.67 513.08
  C 775.77 526.99 764.52 542.69 753.44 553.69
  Q 743.67 563.40 734.04 573.11
  A 1.91 1.90 63.9 0 0 733.50 574.70
  Q 735.28 588.13 735.26 601.68
  A 0.48 0.48 0.0 0 0 735.97 602.10
  C 745.66 596.75 752.61 591.81 763.56 584.12
  Q 777.21 574.54 790.04 564.30
  Q 790.97 563.57 790.22 564.49
  Q 783.85 572.40 777.10 580.37
  Q 759.60 601.03 737.13 616.15
  Q 735.96 616.94 735.86 618.87
  Q 735.01 635.34 731.34 651.22
  A 0.48 0.48 0.0 0 0 732.05 651.74
  Q 765.29 632.14 790.59 603.04
  Q 791.97 601.46 790.96 603.30
  C 776.29 630.28 755.23 651.71 729.27 667.92
  C 728.02 668.70 727.45 669.76 727.07 671.06
  C 722.83 685.71 718.22 701.33 711.60 715.04
  Q 711.23 715.80 711.98 715.41
  C 749.22 695.93 772.24 661.39 796.60 628.82
  Q 796.65 628.75 796.74 628.75
  Q 796.87 628.75 797.00 628.75
  A 0.10 0.08 -76.9 0 1 797.06 628.88
  Q 790.16 647.72 788.21 652.48
  C 773.72 687.73 740.54 716.53 706.23 732.11
  Q 705.77 732.32 705.56 732.78
  C 698.95 747.90 692.21 763.32 683.41 777.16
  Q 682.52 778.56 683.99 777.80
  Q 691.40 773.95 698.99 770.15
  Q 736.94 751.15 765.69 719.94
  Q 777.96 706.62 789.65 692.79
  Q 789.96 692.42 790.40 691.70
  Q 790.93 690.81 791.55 690.60
  Q 792.27 690.36 791.97 691.05
  Q 788.81 698.27 785.56 705.93
  Q 778.35 722.87 765.90 736.39
  C 741.48 762.92 708.69 782.54 674.72 793.70
  A 2.86 2.83 5.7 0 0 673.15 794.97
  Q 662.97 812.36 650.88 828.36
  C 650.14 829.33 648.39 830.71 647.69 832.24
  Q 647.33 833.03 648.13 832.68
  Q 656.27 829.08 664.29 825.24
  Q 700.62 807.82 734.78 786.45
  C 747.88 778.26 755.30 772.45 763.09 766.01
  Q 764.28 765.03 763.49 766.35
  C 753.44 782.98 739.83 796.28 722.62 807.38
  Q 706.07 818.06 688.52 826.99
  Q 675.71 833.51 662.85 839.91
  Q 651.49 845.55 640.37 851.65
  Q 620.20 862.72 604.37 879.36
  Q 602.07 881.78 604.92 880.04
  Q 628.63 865.47 654.06 851.60
  C 680.45 837.21 709.55 825.26 733.30 808.81
  Q 763.81 787.67 790.01 759.81
  C 795.26 754.23 802.00 746.53 805.22 740.96
  C 823.57 709.31 819.55 673.21 809.48 639.91
  Q 809.05 638.49 810.27 636.50
  A 1.26 1.24 -81.5 0 1 811.00 635.95
  C 817.25 634.33 821.04 645.52 822.92 649.75
  Q 832.07 670.36 833.89 692.30
  Q 834.09 694.74 834.95 692.45
  C 838.19 683.76 843.19 670.50 841.71 661.24
  C 838.57 641.64 830.87 622.84 821.61 604.83
  Q 817.58 597.00 814.09 589.86
  Q 813.29 588.23 814.51 589.58
  C 827.99 604.48 840.98 621.33 846.62 640.97
  Q 846.75 641.44 847.21 641.27
  Q 847.48 641.17 847.55 640.51
  Q 848.27 633.50 849.10 626.50
  C 851.80 603.92 846.74 583.05 835.09 563.41
  Q 823.60 544.04 809.74 526.41
  Q 809.35 525.90 809.97 526.04
  Q 810.44 526.13 811.10 526.63
  C 823.26 535.70 832.46 546.85 839.81 560.08
  Q 842.39 564.73 840.94 559.62
  Q 835.43 540.25 823.56 521.88
  Q 804.88 492.97 781.93 467.30
  Q 773.97 458.40 766.06 449.46
  Q 758.98 441.45 756.17 436.96
  C 741.73 413.84 742.07 387.80 766.43 371.64
  C 772.28 367.76 778.44 363.95 781.85 357.59
  C 790.74 341.02 773.11 324.01 759.26 319.04
  Q 758.03 318.60 756.71 318.52
  A 1.25 1.25 0.0 0 0 755.79 318.85
  Q 753.09 321.34 747.51 326.76
  Q 717.49 355.97 691.05 383.67
  C 683.67 391.41 675.64 399.24 668.00 407.11
  C 644.64 431.17 620.05 453.79 595.62 476.74
  C 583.50 488.14 572.95 499.29 562.40 511.39
  C 533.03 545.11 516.32 587.01 507.66 630.45
  Q 507.38 631.84 508.30 632.92
  L 521.72 648.77
  A 0.47 0.46 68.6 0 1 521.39 649.54
  Q 520.54 649.58 519.53 649.35
  C 515.05 648.34 510.12 647.03 505.50 647.23
  Q 504.95 647.26 504.99 647.81
  Q 505.16 650.13 505.81 651.90
  Q 510.33 664.25 518.10 684.53
  C 521.02 692.15 524.26 699.86 527.87 705.85
  C 536.24 719.75 545.84 733.44 550.11 749.28
  Q 550.43 750.47 550.37 751.20
  Q 550.25 752.74 549.37 751.47
  C 545.19 745.44 541.84 739.67 539.06 732.49
  C 536.13 724.91 533.38 716.95 529.77 710.05
  Q 526.52 703.85 522.84 697.89
  Q 513.62 682.98 504.30 667.77
  Q 503.33 666.19 503.26 668.05
  C 503.00 674.49 502.62 679.56 504.90 685.77
  Q 508.55 695.66 512.99 705.21
  Q 513.05 705.34 512.92 705.42
  L 512.91 705.42
  Q 512.78 705.49 512.70 705.36
  Q 508.62 698.90 503.78 692.98
  Q 502.84 691.84 502.36 692.71
  A 0.52 0.49 -36.9 0 0 502.31 693.00
  C 505.10 710.04 509.23 724.01 514.84 742.59
  Q 521.81 765.69 529.42 788.57
  Q 529.49 788.79 529.27 788.88
  L 529.26 788.88
  Q 529.17 788.91 529.10 788.74"
/>
<path stroke="transparent" vector-effect="non-scaling-stroke" d="
  M 333.04 389.40
  Q 333.23 389.36 333.29 389.55
  Q 343.23 424.51 346.72 448.75
  Q 349.42 467.46 352.03 486.19
  C 353.62 497.56 355.91 509.61 357.74 521.33
  A 0.48 0.48 0.0 0 0 358.55 521.59
  C 378.93 501.02 395.65 474.28 396.30 444.63
  C 396.37 441.23 395.47 437.50 394.83 434.26
  Q 394.19 431.06 395.46 434.07
  Q 401.03 447.33 400.12 460.76
  C 398.14 489.85 382.03 513.87 362.36 534.20
  Q 361.74 534.84 361.91 535.71
  C 366.02 557.63 366.47 579.97 368.22 602.22
  Q 376.38 705.62 434.26 791.20
  Q 457.31 825.28 486.24 854.49
  Q 486.74 855.00 486.85 855.03
  Q 487.98 855.34 487.37 854.34
  C 474.52 833.13 461.82 811.92 451.06 789.48
  Q 431.02 747.67 424.30 701.75
  Q 422.09 686.62 422.85 664.17
  A 1.80 1.80 0.0 0 0 422.61 663.20
  C 419.17 657.27 415.43 650.99 412.78 645.22
  C 405.11 628.53 401.23 611.02 398.08 593.02
  Q 398.03 592.73 398.25 592.92
  Q 398.71 593.31 398.98 593.98
  C 406.45 612.54 412.83 632.19 424.06 648.64
  Q 425.40 650.60 425.53 648.23
  Q 426.34 633.23 431.30 620.39
  C 443.48 588.86 458.04 556.37 453.87 521.71
  Q 453.86 521.60 453.91 521.55
  Q 453.99 521.49 454.16 521.48
  Q 454.33 521.47 454.38 521.63
  C 464.45 553.51 454.35 590.41 442.26 620.24
  Q 441.54 622.02 443.15 620.96
  C 447.97 617.79 453.65 614.97 457.96 611.94
  Q 462.44 608.79 466.39 605.55
  Q 467.40 604.72 466.63 605.78
  Q 455.98 620.47 442.36 633.14
  Q 441.25 634.17 441.16 634.97
  Q 438.73 656.95 440.34 680.55
  Q 440.47 682.39 441.69 681.00
  C 452.55 668.63 465.45 657.49 478.25 646.81
  Q 478.38 646.70 478.28 646.83
  C 469.61 657.41 461.16 668.27 451.64 678.19
  Q 446.69 683.34 441.86 688.59
  C 440.12 690.49 440.82 692.85 441.23 695.50
  C 444.70 718.05 450.05 740.74 459.20 761.45
  Q 469.42 784.57 482.21 805.92
  Q 482.86 806.99 482.63 805.76
  C 479.64 789.50 477.46 773.99 476.75 756.50
  Q 475.24 719.30 479.37 684.99
  C 482.92 655.54 485.20 633.58 490.43 608.16
  C 490.79 606.41 490.82 603.88 490.53 602.48
  Q 482.33 562.83 466.46 523.42
  Q 462.80 514.32 458.40 505.12
  C 431.48 448.89 395.23 394.79 348.96 352.57
  Q 347.66 351.38 347.06 351.16
  Q 332.60 346.02 318.19 340.72
  C 308.28 337.08 298.83 335.91 290.68 343.42
  C 286.56 347.20 282.38 351.03 280.15 356.32
  A 2.57 2.53 43.5 0 0 280.22 358.44
  Q 281.64 361.29 283.61 364.08
  C 287.63 369.77 293.56 373.79 297.60 379.41
  C 311.40 398.59 305.34 425.28 296.84 445.09
  Q 291.32 457.96 287.18 465.43
  Q 279.83 478.66 267.11 498.80
  Q 256.44 515.69 248.61 530.60
  C 240.74 545.58 236.27 560.71 232.70 577.50
  A 0.33 0.33 0.0 0 0 233.30 577.73
  C 236.75 571.69 240.31 565.07 244.18 559.95
  Q 250.62 551.42 258.97 544.45
  Q 259.40 544.09 259.35 544.65
  Q 259.35 544.70 259.15 544.98
  Q 248.66 560.14 240.14 576.45
  Q 234.71 586.84 232.53 594.50
  C 226.51 615.62 230.68 636.43 234.31 657.43
  Q 234.56 658.88 234.89 657.45
  C 239.38 638.34 251.16 620.53 263.70 605.84
  Q 264.94 604.38 264.14 606.12
  C 254.20 627.76 246.74 650.45 243.54 674.25
  C 242.63 681.09 244.07 686.10 246.56 692.99
  Q 246.72 693.43 246.81 693.47
  A 0.56 0.56 0.0 0 0 247.60 693.07
  C 249.00 685.45 251.27 676.27 255.36 669.64
  C 257.59 666.01 261.49 665.38 264.03 668.49
  A 2.02 2.01 33.0 0 1 264.42 670.31
  Q 261.76 679.99 260.74 690.03
  Q 259.52 701.98 260.48 707.52
  Q 264.51 730.87 276.68 749.28
  C 296.21 778.84 325.51 802.70 356.14 820.96
  Q 363.17 825.15 373.79 830.32
  Q 391.41 838.90 409.08 847.39
  Q 423.67 854.40 453.52 871.81
  C 454.48 872.37 456.07 873.75 457.50 874.30
  Q 458.39 874.63 457.75 873.94
  Q 445.95 861.06 431.30 851.69
  C 426.59 848.67 420.72 845.89 415.41 843.03
  Q 409.21 839.70 403.33 836.87
  Q 384.59 827.86 366.40 817.80
  C 349.40 808.40 333.37 797.43 321.04 782.20
  Q 318.60 779.20 316.96 776.53
  Q 315.99 774.95 317.43 776.13
  C 331.70 787.75 346.28 795.06 365.82 804.66
  Q 392.86 817.95 419.69 831.66
  Q 422.43 833.07 423.12 833.70
  Q 426.45 836.75 424.34 832.76
  Q 423.67 831.49 422.06 829.19
  Q 412.14 815.07 403.00 800.44
  Q 402.18 799.14 401.50 798.94
  Q 393.99 796.76 385.01 792.92
  C 361.35 782.82 339.33 772.03 318.94 756.81
  C 296.77 740.26 283.07 718.65 272.81 693.29
  Q 272.70 693.02 272.96 692.90
  L 273.19 692.79
  Q 273.23 692.77 273.26 692.81
  Q 280.60 706.35 291.39 717.36
  Q 302.65 728.85 306.85 732.40
  C 331.30 753.07 361.02 768.82 391.03 782.14
  Q 391.52 782.35 391.46 781.82
  Q 391.42 781.48 391.09 780.87
  Q 384.80 769.29 378.26 757.84
  C 374.85 751.88 371.69 745.49 368.37 739.34
  A 2.76 2.76 0.0 0 0 366.77 738.01
  C 332.52 727.18 295.36 695.20 281.37 661.89
  C 278.28 654.54 276.56 646.74 274.10 639.78
  Q 272.92 636.43 274.76 639.46
  C 288.50 662.07 303.70 680.97 325.78 698.19
  Q 342.54 711.26 361.38 721.05
  Q 362.75 721.76 362.23 720.30
  Q 353.74 696.56 348.08 671.99
  A 1.96 1.96 0.0 0 0 347.00 670.67
  C 319.63 658.04 295.06 634.07 278.55 609.54
  Q 277.16 607.48 278.88 609.27
  Q 284.90 615.52 292.39 621.62
  Q 316.12 640.95 343.85 655.21
  A 0.79 0.79 0.0 0 0 344.99 654.38
  Q 341.95 636.43 340.46 617.94
  C 340.36 616.77 339.94 616.07 339.00 615.47
  C 330.56 610.13 321.92 604.48 314.43 598.26
  Q 300.16 586.42 288.05 572.51
  Q 287.81 572.24 288.13 572.42
  L 337.97 601.78
  A 0.55 0.55 0.0 0 0 338.80 601.29
  L 338.50 583.79
  A 1.20 1.19 -71.9 0 0 338.03 582.86
  Q 310.19 561.59 288.89 533.35
  Q 282.17 524.44 275.61 515.42
  Q 275.52 515.29 275.65 515.18
  Q 275.79 515.06 275.93 515.19
  Q 304.67 542.37 337.47 564.48
  A 0.36 0.36 0.0 0 0 338.04 564.19
  C 338.39 550.94 337.82 537.40 338.47 524.42
  A 2.16 2.16 0.0 0 0 338.00 522.94
  C 324.29 505.86 310.46 487.02 303.11 466.49
  Q 302.16 463.84 304.01 465.96
  Q 305.66 467.85 307.92 470.07
  Q 322.69 484.57 337.52 499.34
  Q 338.62 500.43 338.76 498.89
  Q 339.32 492.83 339.20 486.00
  C 338.63 453.95 337.06 419.06 332.87 389.63
  Q 332.84 389.44 333.04 389.40
  L 333.04 389.40"
/>
<path stroke="transparent" vector-effect="non-scaling-stroke" d="
  M 435.41 408.76
  L 405.55 371.18
  Q 404.29 369.60 403.29 371.35
  L 401.92 373.74
  Q 400.91 375.50 402.17 377.08
  C 446.39 432.74 482.84 493.06 503.27 562.02
  Q 503.93 564.27 504.28 565.91
  Q 504.60 567.39 505.24 566.01
  L 514.37 546.25
  Q 514.57 545.80 514.34 545.36
  C 494.29 507.95 473.15 470.59 458.68 430.28
  Q 454.67 419.10 450.47 407.99
  Q 449.08 404.32 448.30 402.98
  C 437.18 383.90 425.87 364.93 413.64 346.54
  A 0.43 0.43 0.0 0 0 412.93 346.52
  L 408.23 352.87
  A 2.69 2.69 0.0 0 0 408.02 355.72
  L 435.73 408.55
  Q 436.69 410.38 435.41 408.76"
/>
<path stroke="transparent" vector-effect="non-scaling-stroke" d="
  M 805.24 427.49
  Q 805.02 426.19 805.76 427.28
  Q 808.82 431.79 810.93 436.83
  Q 811.37 437.90 811.72 436.80
  C 813.17 432.23 817.33 423.15 816.21 418.55
  Q 812.99 405.37 812.77 391.94
  Q 812.76 390.98 813.18 391.84
  L 823.39 412.98
  A 0.29 0.28 45.8 0 0 823.90 412.99
  C 830.91 398.79 838.04 384.89 847.11 372.12
  Q 847.27 371.89 847.49 371.84
  Q 848.01 371.70 847.79 372.19
  C 838.98 391.95 832.77 412.61 827.30 433.50
  Q 825.64 439.86 824.51 446.26
  A 0.45 0.45 0.0 0 0 825.03 446.78
  Q 830.98 445.73 837.01 446.19
  A 0.50 0.50 0.0 0 1 837.40 446.94
  C 835.43 450.34 828.67 453.69 825.14 455.29
  C 823.93 455.84 823.40 456.48 823.21 457.75
  Q 821.77 467.23 821.15 476.81
  C 820.91 480.47 821.92 482.17 824.12 484.81
  A 1.33 1.32 -39.2 0 0 825.97 484.99
  C 829.96 481.79 834.94 480.50 839.71 479.00
  Q 841.31 478.50 840.12 479.68
  L 829.54 490.26
  A 1.53 1.53 0.0 0 0 829.42 492.29
  Q 839.43 505.08 847.23 519.33
  Q 847.51 519.84 847.70 519.29
  Q 851.63 508.10 850.28 496.26
  C 848.50 480.60 846.31 465.74 847.81 449.91
  C 848.68 440.81 851.53 431.04 853.96 421.75
  Q 857.31 408.95 854.25 393.71
  C 852.11 383.04 849.91 376.04 848.36 369.04
  C 846.93 362.61 845.09 356.32 843.41 349.99
  Q 843.15 349.04 842.20 349.27
  Q 823.79 353.73 804.92 355.33
  A 1.68 1.67 4.9 0 0 803.44 356.57
  C 798.90 373.42 787.90 381.39 774.42 390.93
  C 771.35 393.11 766.69 397.36 766.26 401.25
  C 765.30 409.90 769.19 417.80 773.50 425.31
  A 1.42 1.42 0.0 0 0 775.97 425.30
  Q 780.70 416.97 786.49 408.53
  Q 787.31 407.34 787.83 406.82
  Q 789.18 405.48 788.41 407.22
  C 785.01 414.99 783.26 424.04 781.25 432.34
  Q 780.87 433.92 781.93 435.07
  Q 794.41 448.66 805.95 463.18
  A 0.32 0.32 0.0 0 0 806.52 463.03
  C 807.58 456.56 809.36 448.62 808.03 442.11
  Q 806.48 434.56 805.24 427.49"
/>
<path stroke="transparent" vector-effect="non-scaling-stroke" d="
  M 236.04 390.08
  Q 234.48 388.00 236.40 389.74
  Q 243.40 396.07 249.39 403.82
  C 253.62 409.28 257.61 416.79 261.94 423.16
  Q 262.35 423.76 262.42 423.04
  Q 263.33 414.47 264.76 405.97
  Q 265.29 402.82 265.86 405.96
  C 267.06 412.55 268.36 419.97 268.23 426.77
  C 268.15 430.29 266.91 435.32 267.67 438.51
  Q 269.23 445.03 269.87 450.76
  Q 270.10 452.74 270.96 450.94
  C 278.07 436.19 288.71 418.32 284.72 401.21
  C 281.92 389.18 272.61 381.25 264.04 372.98
  A 2.51 2.50 66.8 0 0 262.27 372.27
  Q 247.65 372.35 233.27 369.73
  Q 232.98 369.68 232.92 369.97
  C 232.15 374.53 231.54 379.07 230.30 383.55
  C 226.88 395.93 223.36 407.55 223.94 419.89
  C 224.34 428.36 227.64 441.27 228.42 452.19
  C 229.35 465.20 226.81 478.80 228.57 491.06
  Q 230.13 501.92 234.46 512.20
  Q 234.67 512.69 234.94 512.23
  L 249.24 487.68
  A 2.19 2.19 0.0 0 0 248.66 484.82
  L 238.19 476.98
  A 0.25 0.25 0.0 0 1 238.36 476.54
  Q 246.21 477.21 253.51 480.15
  Q 253.87 480.29 254.11 479.99
  C 257.12 476.18 258.90 472.77 258.36 468.79
  Q 257.24 460.58 256.09 452.38
  C 255.67 449.37 255.44 448.39 252.45 447.14
  Q 246.70 444.73 241.05 441.37
  A 1.13 1.12 -49.2 0 1 240.92 439.53
  C 242.98 437.84 252.21 438.52 254.68 438.96
  Q 255.38 439.08 255.23 438.39
  Q 251.81 422.82 245.63 408.48
  C 242.41 401.02 240.18 395.61 236.04 390.08"
/>
<path stroke="transparent" vector-effect="non-scaling-stroke" d="
  M 708.23 677.40
  C 711.23 665.99 715.07 653.45 717.11 643.09
  C 722.66 614.83 723.00 583.90 720.74 555.45
  C 718.76 530.54 712.05 506.86 713.32 481.61
  Q 713.33 481.45 713.17 481.44
  L 713.16 481.44
  Q 713.01 481.42 712.99 481.58
  Q 711.07 497.40 710.94 501.50
  C 710.53 514.76 708.65 529.77 709.74 541.50
  Q 710.82 553.25 712.09 564.99
  C 715.38 595.35 714.68 626.43 711.17 656.75
  Q 710.15 665.59 707.62 677.45
  Q 707.61 677.51 707.68 677.53
  L 707.93 677.59
  Q 708.17 677.64 708.23 677.40"
/>
<path stroke="transparent" vector-effect="non-scaling-stroke" d="
  M 348.86 515.44
  Q 348.73 514.59 348.57 515.44
  Q 348.13 517.74 348.25 520.75
  Q 349.24 545.49 349.41 570.25
  C 349.78 622.95 357.25 675.07 376.06 724.73
  Q 380.50 736.45 388.52 750.50
  Q 388.88 751.13 389.06 750.43
  Q 389.27 749.64 388.98 748.76
  Q 382.44 728.38 376.09 707.95
  C 365.08 672.57 359.01 636.23 357.00 599.26
  Q 356.19 584.51 355.33 569.76
  C 354.26 551.53 351.61 533.53 348.86 515.44"
/>
<path stroke="transparent" vector-effect="non-scaling-stroke" d="
  M 495.04 759.33
  Q 494.41 756.94 493.88 754.58
  A 0.04 0.04 0.0 0 0 493.80 754.59
  Q 498.57 796.54 513.30 836.25
  Q 517.06 846.38 521.09 856.39
  Q 521.11 856.44 521.16 856.42
  L 521.40 856.33
  A 0.30 0.30 0.0 0 0 521.60 855.95
  Q 517.79 842.45 513.96 828.93
  Q 504.11 794.24 495.04 759.33"
/>
<path stroke="transparent" vector-effect="non-scaling-stroke" d="
  M 644.18 570.75
  C 647.03 553.00 643.55 537.65 635.48 521.82
  Q 634.66 520.21 635.05 521.98
  Q 637.28 532.17 638.80 543.00
  C 640.14 552.52 642.41 561.46 644.17 570.75
  A 0.01 0.00 41.4 0 0 644.18 570.75"
/>
<path stroke="transparent" vector-effect="non-scaling-stroke" d="
  M 563.01 536.53
  C 568.03 547.03 572.50 557.77 579.18 567.38
  Q 582.88 572.69 586.23 577.98
  Q 586.74 578.77 586.44 577.88
  C 581.28 562.07 572.75 549.82 563.26 536.39
  Q 563.18 536.28 563.07 536.35
  L 563.07 536.35
  Q 562.96 536.41 563.01 536.53"
/>
<path stroke="transparent" vector-effect="non-scaling-stroke" d="
  M 420.44 595.29
  Q 420.92 597.07 421.12 597.91
  Q 421.60 600.00 421.60 597.86
  C 421.59 590.89 422.81 584.02 422.81 577.01
  C 422.81 569.58 421.66 560.99 420.94 553.04
  Q 420.86 552.18 420.63 553.01
  Q 414.69 574.26 420.44 595.29"
/>
<path stroke="transparent" vector-effect="non-scaling-stroke" d="
  M 451.02 725.55
  C 462.68 719.03 467.03 707.90 474.45 695.48
  Q 474.48 695.43 474.44 695.39
  Q 473.83 694.79 474.39 695.38
  Q 474.41 695.41 474.39 695.43
  C 465.65 704.18 456.29 713.94 450.26 724.80
  Q 449.32 726.50 451.02 725.55"
/>
</g>
<path fill="currentColor" d="
  M 709.82 335.24
  Q 709.12 337.44 710.70 335.76
  Q 726.39 319.14 743.33 302.83
  C 744.86 301.36 746.99 300.14 749.16 299.58
  C 765.51 295.33 783.01 307.27 793.09 319.15
  Q 799.44 326.64 802.10 335.92
  A 1.13 1.12 -9.9 0 0 803.26 336.73
  C 821.71 335.49 838.98 332.03 856.74 327.18
  A 0.93 0.92 77.8 0 1 857.90 327.93
  C 861.04 348.11 867.67 368.44 871.97 387.50
  Q 875.31 402.25 873.14 417.21
  C 871.81 426.45 867.77 436.38 866.23 446.19
  C 863.66 462.47 866.43 477.87 868.38 494.01
  C 870.40 510.68 866.80 528.46 859.81 543.63
  C 859.43 544.46 859.32 545.86 859.60 546.71
  C 880.70 610.71 873.89 678.19 838.45 735.20
  Q 827.42 752.94 812.34 770.34
  Q 765.81 824.02 703.53 852.83
  Q 658.76 873.54 616.69 899.26
  C 597.39 911.05 577.42 924.94 567.14 945.55
  C 565.15 949.53 558.81 950.70 553.95 951.00
  Q 534.90 952.19 517.25 951.00
  C 511.47 950.61 508.78 948.00 505.39 943.01
  Q 497.06 930.78 484.88 920.87
  C 453.40 895.26 417.11 876.01 380.76 859.11
  C 370.73 854.44 362.46 850.23 353.40 845.49
  C 324.95 830.59 298.38 811.19 276.13 787.99
  C 262.49 773.76 250.87 757.01 241.02 739.97
  C 215.63 696.03 203.42 644.42 209.19 593.74
  C 211.40 574.40 215.08 555.07 222.24 536.93
  A 2.39 2.36 44.7 0 0 222.22 535.15
  C 214.74 517.32 209.59 500.66 210.38 481.01
  Q 210.84 469.63 211.22 458.25
  Q 211.58 447.33 209.98 440.74
  C 206.23 425.24 204.75 411.31 208.36 395.76
  Q 210.57 386.27 213.15 376.87
  Q 216.32 365.39 216.39 349.83
  Q 216.39 349.25 216.96 349.34
  C 230.90 351.42 244.78 353.59 258.85 354.42
  A 1.48 1.48 0.0 0 0 260.36 353.34
  C 263.51 342.17 273.32 331.52 282.55 325.31
  C 300.87 313.00 322.27 319.89 340.35 328.18
  Q 341.32 328.62 341.10 327.57
  C 338.14 313.18 338.56 300.17 344.62 286.97
  C 348.74 278.00 356.74 270.06 361.65 260.81
  C 367.86 249.10 368.46 237.01 370.87 224.27
  C 375.43 200.15 392.91 186.33 412.42 168.42
  Q 413.81 167.15 415.50 167.53
  Q 423.12 169.23 430.48 171.85
  C 449.34 178.59 462.63 185.34 478.44 193.06
  A 3.55 3.51 54.3 0 0 480.39 193.39
  Q 492.21 192.02 504.24 189.41
  C 514.02 187.28 522.99 182.37 532.66 176.42
  C 552.20 164.39 571.39 153.06 591.04 148.65
  A 1.64 1.63 61.5 0 1 592.57 149.11
  Q 616.27 173.67 647.72 187.77
  Q 655.90 191.43 663.97 195.36
  C 697.42 211.65 716.32 245.92 718.17 282.51
  C 719.03 299.48 715.05 318.97 709.82 335.24
  Z
  M 550.13 204.78
  Q 550.06 204.61 550.18 204.74
  C 561.11 215.84 569.49 228.26 578.09 241.18
  Q 579.51 243.31 581.99 243.98
  Q 593.64 247.14 605.05 251.24
  A 0.36 0.35 3.7 0 0 605.52 250.83
  Q 604.55 246.55 601.91 242.85
  Q 591.60 228.41 581.27 213.97
  Q 581.13 213.76 581.29 213.60
  A 0.19 0.19 0.0 0 1 581.53 213.58
  C 591.15 220.25 601.18 227.84 608.51 237.06
  Q 608.82 237.46 608.84 236.95
  Q 609.79 213.66 605.24 190.78
  Q 604.69 187.99 605.86 190.58
  C 613.25 206.82 616.97 225.16 618.65 243.02
  C 618.73 243.90 618.47 244.95 618.51 245.94
  Q 618.56 246.95 619.24 246.20
  L 632.84 231.29
  Q 633.33 230.76 633.15 231.46
  Q 629.74 244.47 623.32 256.28
  A 0.53 0.53 0.0 0 0 623.57 257.02
  L 637.11 262.73
  Q 637.53 262.91 637.83 262.58
  Q 639.59 260.65 641.06 257.78
  Q 647.76 244.65 654.95 229.17
  Q 655.38 228.22 655.27 229.26
  Q 653.07 249.64 649.58 270.51
  Q 648.89 274.65 649.45 275.76
  Q 652.52 281.80 655.21 287.93
  A 0.21 0.21 0.0 0 0 655.60 287.93
  L 674.00 245.32
  A 0.07 0.07 0.0 0 1 674.14 245.35
  Q 673.07 273.59 665.43 300.79
  A 3.00 2.97 -56.6 0 0 665.96 303.43
  L 671.68 310.64
  Q 672.00 311.05 672.24 310.59
  C 678.82 297.98 684.52 284.87 690.33 272.04
  Q 690.89 270.79 690.82 272.16
  C 690.45 278.86 690.45 286.15 689.62 292.26
  Q 687.48 308.04 681.59 322.95
  A 1.34 1.33 38.0 0 0 681.75 324.21
  L 689.28 334.63
  A 0.27 0.26 -52.2 0 0 689.74 334.57
  C 694.87 321.72 697.62 307.94 700.10 294.33
  C 703.51 275.68 697.96 258.25 688.84 242.02
  C 679.93 226.14 666.65 215.14 649.44 207.91
  Q 631.57 200.40 625.55 196.72
  Q 605.31 184.37 587.14 168.97
  A 2.00 1.97 -34.7 0 0 585.19 168.63
  Q 578.77 170.97 572.61 174.33
  C 551.67 185.77 531.38 198.08 509.99 208.73
  Q 509.49 208.98 509.93 209.32
  Q 517.04 214.97 524.16 220.60
  Q 538.07 231.58 548.53 245.56
  A 1.22 1.21 -31.9 0 0 550.05 245.91
  Q 556.64 242.56 563.92 241.10
  Q 565.10 240.86 564.64 239.74
  L 550.13 204.78
  Z
  M 396.99 263.33
  Q 395.51 259.69 397.82 262.87
  Q 407.16 275.69 417.40 287.81
  Q 418.14 288.69 418.09 287.54
  C 417.91 283.63 416.89 279.29 416.54 275.80
  Q 415.62 266.66 414.80 257.50
  C 413.45 242.24 414.13 228.31 414.64 214.03
  Q 414.77 210.32 415.33 213.99
  C 417.46 227.83 419.43 242.33 422.36 256.48
  C 423.21 260.56 423.63 264.65 424.86 268.66
  Q 425.31 270.16 425.78 268.67
  C 428.99 258.43 435.07 248.36 441.31 239.83
  Q 443.20 237.25 442.24 240.30
  Q 437.16 256.43 431.97 274.11
  Q 430.30 279.79 431.36 284.46
  Q 433.73 294.99 436.84 305.32
  A 0.55 0.55 0.0 0 0 437.56 305.67
  L 447.14 301.86
  A 1.82 1.82 0.0 0 0 448.29 300.26
  C 449.84 273.23 456.34 246.81 463.91 221.16
  Q 464.25 220.01 464.25 221.21
  Q 464.26 250.41 461.19 279.72
  C 460.63 285.10 460.55 291.13 459.96 296.80
  A 0.30 0.30 0.0 0 0 460.38 297.11
  L 470.84 292.59
  A 2.64 2.64 0.0 0 0 472.34 290.90
  Q 475.44 280.12 479.56 269.71
  Q 479.75 269.22 479.79 269.74
  L 481.06 287.21
  Q 481.11 287.93 481.76 287.61
  L 499.36 278.81
  Q 499.78 278.59 499.83 278.12
  Q 501.62 260.64 508.09 244.30
  Q 508.31 243.73 508.30 244.34
  Q 507.89 262.40 507.97 280.75
  Q 507.98 282.50 509.34 282.95
  A 1.13 1.13 0.0 0 0 510.56 282.60
  L 531.32 257.56
  A 2.35 2.33 -40.5 0 0 531.54 254.88
  C 525.93 245.35 516.30 236.66 507.40 230.27
  C 496.54 222.47 484.15 216.61 472.07 210.48
  C 455.25 201.94 437.78 194.55 420.21 187.87
  A 1.40 1.39 -53.8 0 0 418.83 188.09
  C 409.28 195.80 398.35 205.88 393.00 216.13
  Q 388.55 224.64 387.36 234.51
  C 385.52 249.85 382.03 262.92 373.96 275.65
  C 370.91 280.46 364.96 287.02 362.25 292.30
  Q 352.31 311.68 362.09 331.24
  Q 363.74 334.54 366.61 336.89
  Q 375.96 344.58 385.31 352.13
  A 0.51 0.50 -45.4 0 0 385.95 352.12
  C 388.30 350.07 388.75 348.12 386.86 345.42
  C 380.49 336.35 375.09 328.49 370.05 316.83
  Q 368.92 314.23 367.74 312.13
  Q 367.06 310.94 368.15 311.77
  Q 369.39 312.72 370.99 314.25
  Q 382.17 324.90 396.01 337.42
  Q 396.88 338.20 397.65 337.31
  L 402.44 331.76
  A 1.81 1.80 -40.9 0 0 402.60 329.61
  C 393.75 315.56 385.41 302.01 378.59 287.04
  Q 378.03 285.80 379.06 286.69
  Q 396.46 301.65 412.13 318.42
  A 1.06 1.05 -39.8 0 0 413.53 318.54
  L 422.69 311.62
  A 0.90 0.89 56.8 0 0 422.93 310.47
  Q 416.28 298.74 409.36 287.54
  C 404.19 279.19 400.35 271.61 396.99 263.33
  Z
  M 632.17 327.51
  Q 631.51 337.65 629.08 347.51
  A 1.42 1.40 -62.6 0 0 629.51 348.90
  L 646.52 363.89
  Q 646.91 364.24 647.26 363.86
  L 663.87 346.32
  Q 664.02 346.15 663.93 346.36
  L 654.03 368.31
  A 1.73 1.73 0.0 0 0 654.40 370.25
  L 665.63 381.29
  A 0.72 0.71 -46.6 0 0 666.66 381.26
  L 681.59 365.13
  A 3.10 3.10 0.0 0 0 682.32 362.25
  C 678.42 346.69 666.35 334.06 655.85 322.65
  C 646.23 312.18 641.04 301.08 632.93 284.51
  Q 630.60 279.75 627.69 278.52
  Q 597.37 265.65 564.98 259.60
  Q 563.67 259.36 563.10 259.62
  C 555.46 263.14 548.62 267.07 542.43 273.18
  Q 534.73 280.80 528.44 289.88
  A 1.12 1.12 0.0 0 0 528.94 291.56
  L 575.99 310.92
  Q 576.60 311.17 576.59 310.51
  L 576.31 281.25
  Q 576.29 279.02 576.85 281.18
  Q 580.48 295.22 584.67 310.03
  C 585.61 313.33 585.90 314.97 588.96 316.94
  Q 600.78 324.55 611.19 334.27
  A 0.61 0.61 0.0 0 0 612.20 333.96
  L 620.45 299.31
  A 0.10 0.10 0.0 0 1 620.65 299.32
  Q 621.90 319.53 618.21 339.39
  A 0.95 0.95 0.0 0 0 618.57 340.31
  L 622.88 343.60
  A 1.21 1.20 31.1 0 0 624.71 343.15
  L 632.01 327.47
  Q 632.20 327.06 632.17 327.51
  Z
  M 604.83 411.05
  Q 602.00 418.60 599.63 426.30
  C 597.47 433.30 596.31 441.09 594.73 448.45
  Q 594.33 450.32 595.76 449.06
  C 609.71 436.83 622.89 423.60 636.32 410.81
  Q 643.10 404.35 650.87 396.24
  Q 651.76 395.32 650.83 394.44
  C 643.87 387.83 636.85 381.18 629.36 374.91
  C 613.42 361.54 597.05 348.59 581.58 334.67
  Q 578.40 331.81 576.38 331.07
  Q 538.72 317.24 502.48 300.01
  C 500.94 299.27 499.78 298.98 498.17 299.92
  C 478.06 311.63 456.85 318.72 435.16 326.72
  C 430.03 328.61 426.50 332.58 423.34 336.63
  A 3.43 3.42 55.4 0 0 422.77 339.75
  Q 425.03 347.13 428.21 354.13
  Q 436.77 372.97 444.59 392.14
  Q 448.63 402.06 452.88 410.32
  C 464.63 433.16 476.66 455.91 488.61 478.65
  Q 504.24 508.37 510.12 517.62
  Q 515.32 525.79 520.14 534.43
  A 0.42 0.42 0.0 0 0 520.89 534.41
  C 524.30 527.43 525.28 518.67 526.08 510.99
  Q 527.53 497.26 528.79 483.51
  Q 529.01 481.09 528.12 479.46
  C 514.53 454.44 504.55 428.82 495.95 401.56
  C 488.93 379.28 484.04 356.23 480.92 333.17
  Q 480.75 331.90 481.11 333.13
  C 494.05 376.39 508.99 417.99 530.52 457.81
  Q 532.00 460.56 532.22 457.44
  Q 533.91 433.06 536.21 407.22
  Q 538.92 376.91 543.00 346.74
  Q 543.02 346.66 543.10 346.67
  L 543.35 346.68
  A 0.27 0.27 0.0 0 1 543.60 346.95
  Q 543.55 394.86 542.85 442.76
  C 542.59 460.81 543.10 478.28 543.96 496.00
  Q 544.09 498.71 543.79 500.32
  Q 543.27 503.09 544.83 500.77
  Q 546.10 498.87 548.12 496.61
  C 559.38 483.99 571.05 471.81 583.70 460.55
  C 584.88 459.50 585.80 458.13 586.20 456.75
  Q 589.40 445.85 592.77 434.99
  Q 595.85 425.06 604.73 411.01
  A 0.06 0.05 -20.8 0 1 604.83 411.05
  Z
  M 529.10 788.74
  L 503.55 730.10
  Q 502.91 728.62 503.14 730.22
  Q 504.38 738.72 505.66 747.97
  Q 509.99 779.11 518.28 809.44
  Q 527.68 843.85 538.40 877.86
  A 0.35 0.34 54.1 0 0 539.01 877.96
  C 542.05 873.70 544.14 869.35 544.89 864.00
  C 546.42 853.00 545.02 841.36 542.96 830.50
  Q 538.83 808.73 532.37 787.51
  Q 532.31 787.31 532.43 787.15
  L 532.72 786.79
  Q 532.75 786.74 532.78 786.79
  C 542.55 807.33 550.80 827.60 554.82 850.12
  C 555.13 851.85 555.16 853.89 555.26 855.61
  Q 555.36 857.16 556.29 855.91
  Q 563.28 846.57 569.77 836.58
  C 574.41 829.43 574.62 822.09 574.40 813.25
  Q 574.07 800.20 572.45 787.25
  Q 570.14 768.71 564.18 743.57
  Q 564.12 743.32 564.36 743.25
  L 564.61 743.17
  Q 564.69 743.15 564.72 743.22
  C 572.17 763.20 579.41 785.74 582.70 807.41
  C 583.11 810.17 583.20 813.07 583.24 815.82
  Q 583.26 817.13 583.93 816.01
  C 596.19 795.67 607.89 775.67 617.60 753.94
  Q 618.26 752.47 618.01 751.74
  Q 616.34 746.74 612.22 738.76
  Q 604.39 723.62 595.76 708.94
  C 577.43 677.77 558.13 647.20 539.78 616.04
  Q 539.70 615.91 539.83 615.82
  L 539.83 615.82
  Q 539.96 615.73 540.05 615.86
  C 555.94 636.85 572.59 657.31 588.34 678.39
  C 602.09 696.78 615.69 716.49 624.09 738.00
  Q 624.70 739.55 625.19 737.96
  Q 626.34 734.20 627.97 729.73
  Q 634.98 710.35 638.19 690.00
  C 638.61 687.35 638.16 686.37 636.79 684.24
  Q 631.81 676.55 629.66 673.59
  Q 610.79 647.65 592.89 621.04
  Q 592.80 620.90 592.93 620.80
  L 592.93 620.80
  Q 593.06 620.69 593.17 620.81
  C 608.88 637.30 624.70 653.48 638.32 671.58
  Q 639.41 673.02 639.52 671.22
  C 640.58 653.30 639.00 634.45 636.77 616.66
  A 2.34 2.33 -71.0 0 0 636.12 615.32
  Q 623.67 602.60 614.83 587.15
  Q 614.13 585.92 615.15 586.90
  Q 623.88 595.36 633.78 602.45
  Q 634.25 602.79 634.12 602.22
  Q 632.79 596.67 630.49 591.27
  C 622.93 573.59 614.78 556.10 608.34 537.97
  Q 601.58 518.90 599.64 498.75
  Q 599.22 494.43 598.75 490.11
  Q 598.74 490.04 598.81 490.03
  Q 598.84 490.03 598.88 490.02
  Q 599.01 490.01 599.05 490.14
  Q 602.51 501.79 605.74 513.52
  Q 607.56 520.14 616.59 539.87
  Q 624.41 556.95 632.57 573.85
  C 641.73 592.82 647.96 609.27 651.12 628.93
  A 0.52 0.52 0.0 0 0 652.09 629.10
  Q 652.17 628.95 652.23 628.74
  C 657.90 609.03 660.89 591.97 664.79 568.38
  Q 664.81 568.27 664.90 568.26
  Q 664.95 568.26 664.99 568.26
  Q 665.12 568.29 665.13 568.50
  C 666.83 596.11 662.87 622.99 655.75 649.68
  Q 655.00 652.48 655.22 655.39
  C 658.06 693.00 651.17 727.94 637.03 761.74
  Q 621.59 798.63 601.80 833.39
  Q 593.69 847.61 584.91 860.00
  Q 582.78 863.01 585.61 860.64
  C 599.89 848.73 613.77 835.19 626.00 820.78
  C 636.47 808.44 645.21 795.34 652.77 783.24
  C 672.03 752.38 687.95 715.59 695.84 681.46
  C 705.36 640.32 708.11 598.05 703.11 555.32
  C 701.51 541.63 699.39 528.65 699.99 514.90
  A 3.91 3.90 28.5 0 0 699.26 512.45
  C 683.70 490.82 672.14 467.05 675.56 439.51
  Q 677.05 427.53 682.60 417.96
  Q 683.58 416.26 682.94 418.12
  C 676.77 435.84 679.54 455.92 687.58 473.22
  C 693.13 485.15 699.34 492.81 705.85 502.64
  A 0.51 0.50 33.1 0 0 706.77 502.45
  C 712.96 465.99 721.39 430.06 739.77 397.52
  A 0.06 0.06 0.0 0 1 739.88 397.57
  Q 732.60 417.08 728.41 437.74
  C 723.85 460.16 719.66 483.67 723.27 506.53
  A 0.15 0.15 0.0 0 0 723.52 506.61
  C 737.26 493.16 750.60 479.06 765.16 466.53
  Q 766.17 465.67 765.59 466.86
  C 756.68 485.14 745.63 501.60 732.84 517.88
  C 730.88 520.37 729.12 523.31 727.19 525.88
  A 3.84 3.82 57.7 0 0 726.51 528.93
  L 732.34 556.98
  Q 732.47 557.58 732.95 557.20
  Q 760.10 536.13 785.33 512.78
  Q 786.94 511.30 785.67 513.08
  C 775.77 526.99 764.52 542.69 753.44 553.69
  Q 743.67 563.40 734.04 573.11
  A 1.91 1.90 63.9 0 0 733.50 574.70
  Q 735.28 588.13 735.26 601.68
  A 0.48 0.48 0.0 0 0 735.97 602.10
  C 745.66 596.75 752.61 591.81 763.56 584.12
  Q 777.21 574.54 790.04 564.30
  Q 790.97 563.57 790.22 564.49
  Q 783.85 572.40 777.10 580.37
  Q 759.60 601.03 737.13 616.15
  Q 735.96 616.94 735.86 618.87
  Q 735.01 635.34 731.34 651.22
  A 0.48 0.48 0.0 0 0 732.05 651.74
  Q 765.29 632.14 790.59 603.04
  Q 791.97 601.46 790.96 603.30
  C 776.29 630.28 755.23 651.71 729.27 667.92
  C 728.02 668.70 727.45 669.76 727.07 671.06
  C 722.83 685.71 718.22 701.33 711.60 715.04
  Q 711.23 715.80 711.98 715.41
  C 749.22 695.93 772.24 661.39 796.60 628.82
  Q 796.65 628.75 796.74 628.75
  Q 796.87 628.75 797.00 628.75
  A 0.10 0.08 -76.9 0 1 797.06 628.88
  Q 790.16 647.72 788.21 652.48
  C 773.72 687.73 740.54 716.53 706.23 732.11
  Q 705.77 732.32 705.56 732.78
  C 698.95 747.90 692.21 763.32 683.41 777.16
  Q 682.52 778.56 683.99 777.80
  Q 691.40 773.95 698.99 770.15
  Q 736.94 751.15 765.69 719.94
  Q 777.96 706.62 789.65 692.79
  Q 789.96 692.42 790.40 691.70
  Q 790.93 690.81 791.55 690.60
  Q 792.27 690.36 791.97 691.05
  Q 788.81 698.27 785.56 705.93
  Q 778.35 722.87 765.90 736.39
  C 741.48 762.92 708.69 782.54 674.72 793.70
  A 2.86 2.83 5.7 0 0 673.15 794.97
  Q 662.97 812.36 650.88 828.36
  C 650.14 829.33 648.39 830.71 647.69 832.24
  Q 647.33 833.03 648.13 832.68
  Q 656.27 829.08 664.29 825.24
  Q 700.62 807.82 734.78 786.45
  C 747.88 778.26 755.30 772.45 763.09 766.01
  Q 764.28 765.03 763.49 766.35
  C 753.44 782.98 739.83 796.28 722.62 807.38
  Q 706.07 818.06 688.52 826.99
  Q 675.71 833.51 662.85 839.91
  Q 651.49 845.55 640.37 851.65
  Q 620.20 862.72 604.37 879.36
  Q 602.07 881.78 604.92 880.04
  Q 628.63 865.47 654.06 851.60
  C 680.45 837.21 709.55 825.26 733.30 808.81
  Q 763.81 787.67 790.01 759.81
  C 795.26 754.23 802.00 746.53 805.22 740.96
  C 823.57 709.31 819.55 673.21 809.48 639.91
  Q 809.05 638.49 810.27 636.50
  A 1.26 1.24 -81.5 0 1 811.00 635.95
  C 817.25 634.33 821.04 645.52 822.92 649.75
  Q 832.07 670.36 833.89 692.30
  Q 834.09 694.74 834.95 692.45
  C 838.19 683.76 843.19 670.50 841.71 661.24
  C 838.57 641.64 830.87 622.84 821.61 604.83
  Q 817.58 597.00 814.09 589.86
  Q 813.29 588.23 814.51 589.58
  C 827.99 604.48 840.98 621.33 846.62 640.97
  Q 846.75 641.44 847.21 641.27
  Q 847.48 641.17 847.55 640.51
  Q 848.27 633.50 849.10 626.50
  C 851.80 603.92 846.74 583.05 835.09 563.41
  Q 823.60 544.04 809.74 526.41
  Q 809.35 525.90 809.97 526.04
  Q 810.44 526.13 811.10 526.63
  C 823.26 535.70 832.46 546.85 839.81 560.08
  Q 842.39 564.73 840.94 559.62
  Q 835.43 540.25 823.56 521.88
  Q 804.88 492.97 781.93 467.30
  Q 773.97 458.40 766.06 449.46
  Q 758.98 441.45 756.17 436.96
  C 741.73 413.84 742.07 387.80 766.43 371.64
  C 772.28 367.76 778.44 363.95 781.85 357.59
  C 790.74 341.02 773.11 324.01 759.26 319.04
  Q 758.03 318.60 756.71 318.52
  A 1.25 1.25 0.0 0 0 755.79 318.85
  Q 753.09 321.34 747.51 326.76
  Q 717.49 355.97 691.05 383.67
  C 683.67 391.41 675.64 399.24 668.00 407.11
  C 644.64 431.17 620.05 453.79 595.62 476.74
  C 583.50 488.14 572.95 499.29 562.40 511.39
  C 533.03 545.11 516.32 587.01 507.66 630.45
  Q 507.38 631.84 508.30 632.92
  L 521.72 648.77
  A 0.47 0.46 68.6 0 1 521.39 649.54
  Q 520.54 649.58 519.53 649.35
  C 515.05 648.34 510.12 647.03 505.50 647.23
  Q 504.95 647.26 504.99 647.81
  Q 505.16 650.13 505.81 651.90
  Q 510.33 664.25 518.10 684.53
  C 521.02 692.15 524.26 699.86 527.87 705.85
  C 536.24 719.75 545.84 733.44 550.11 749.28
  Q 550.43 750.47 550.37 751.20
  Q 550.25 752.74 549.37 751.47
  C 545.19 745.44 541.84 739.67 539.06 732.49
  C 536.13 724.91 533.38 716.95 529.77 710.05
  Q 526.52 703.85 522.84 697.89
  Q 513.62 682.98 504.30 667.77
  Q 503.33 666.19 503.26 668.05
  C 503.00 674.49 502.62 679.56 504.90 685.77
  Q 508.55 695.66 512.99 705.21
  Q 513.05 705.34 512.92 705.42
  L 512.91 705.42
  Q 512.78 705.49 512.70 705.36
  Q 508.62 698.90 503.78 692.98
  Q 502.84 691.84 502.36 692.71
  A 0.52 0.49 -36.9 0 0 502.31 693.00
  C 505.10 710.04 509.23 724.01 514.84 742.59
  Q 521.81 765.69 529.42 788.57
  Q 529.49 788.79 529.27 788.88
  L 529.26 788.88
  Q 529.17 788.91 529.10 788.74
  Z
  M 333.04 389.40
  Q 333.23 389.36 333.29 389.55
  Q 343.23 424.51 346.72 448.75
  Q 349.42 467.46 352.03 486.19
  C 353.62 497.56 355.91 509.61 357.74 521.33
  A 0.48 0.48 0.0 0 0 358.55 521.59
  C 378.93 501.02 395.65 474.28 396.30 444.63
  C 396.37 441.23 395.47 437.50 394.83 434.26
  Q 394.19 431.06 395.46 434.07
  Q 401.03 447.33 400.12 460.76
  C 398.14 489.85 382.03 513.87 362.36 534.20
  Q 361.74 534.84 361.91 535.71
  C 366.02 557.63 366.47 579.97 368.22 602.22
  Q 376.38 705.62 434.26 791.20
  Q 457.31 825.28 486.24 854.49
  Q 486.74 855.00 486.85 855.03
  Q 487.98 855.34 487.37 854.34
  C 474.52 833.13 461.82 811.92 451.06 789.48
  Q 431.02 747.67 424.30 701.75
  Q 422.09 686.62 422.85 664.17
  A 1.80 1.80 0.0 0 0 422.61 663.20
  C 419.17 657.27 415.43 650.99 412.78 645.22
  C 405.11 628.53 401.23 611.02 398.08 593.02
  Q 398.03 592.73 398.25 592.92
  Q 398.71 593.31 398.98 593.98
  C 406.45 612.54 412.83 632.19 424.06 648.64
  Q 425.40 650.60 425.53 648.23
  Q 426.34 633.23 431.30 620.39
  C 443.48 588.86 458.04 556.37 453.87 521.71
  Q 453.86 521.60 453.91 521.55
  Q 453.99 521.49 454.16 521.48
  Q 454.33 521.47 454.38 521.63
  C 464.45 553.51 454.35 590.41 442.26 620.24
  Q 441.54 622.02 443.15 620.96
  C 447.97 617.79 453.65 614.97 457.96 611.94
  Q 462.44 608.79 466.39 605.55
  Q 467.40 604.72 466.63 605.78
  Q 455.98 620.47 442.36 633.14
  Q 441.25 634.17 441.16 634.97
  Q 438.73 656.95 440.34 680.55
  Q 440.47 682.39 441.69 681.00
  C 452.55 668.63 465.45 657.49 478.25 646.81
  Q 478.38 646.70 478.28 646.83
  C 469.61 657.41 461.16 668.27 451.64 678.19
  Q 446.69 683.34 441.86 688.59
  C 440.12 690.49 440.82 692.85 441.23 695.50
  C 444.70 718.05 450.05 740.74 459.20 761.45
  Q 469.42 784.57 482.21 805.92
  Q 482.86 806.99 482.63 805.76
  C 479.64 789.50 477.46 773.99 476.75 756.50
  Q 475.24 719.30 479.37 684.99
  C 482.92 655.54 485.20 633.58 490.43 608.16
  C 490.79 606.41 490.82 603.88 490.53 602.48
  Q 482.33 562.83 466.46 523.42
  Q 462.80 514.32 458.40 505.12
  C 431.48 448.89 395.23 394.79 348.96 352.57
  Q 347.66 351.38 347.06 351.16
  Q 332.60 346.02 318.19 340.72
  C 308.28 337.08 298.83 335.91 290.68 343.42
  C 286.56 347.20 282.38 351.03 280.15 356.32
  A 2.57 2.53 43.5 0 0 280.22 358.44
  Q 281.64 361.29 283.61 364.08
  C 287.63 369.77 293.56 373.79 297.60 379.41
  C 311.40 398.59 305.34 425.28 296.84 445.09
  Q 291.32 457.96 287.18 465.43
  Q 279.83 478.66 267.11 498.80
  Q 256.44 515.69 248.61 530.60
  C 240.74 545.58 236.27 560.71 232.70 577.50
  A 0.33 0.33 0.0 0 0 233.30 577.73
  C 236.75 571.69 240.31 565.07 244.18 559.95
  Q 250.62 551.42 258.97 544.45
  Q 259.40 544.09 259.35 544.65
  Q 259.35 544.70 259.15 544.98
  Q 248.66 560.14 240.14 576.45
  Q 234.71 586.84 232.53 594.50
  C 226.51 615.62 230.68 636.43 234.31 657.43
  Q 234.56 658.88 234.89 657.45
  C 239.38 638.34 251.16 620.53 263.70 605.84
  Q 264.94 604.38 264.14 606.12
  C 254.20 627.76 246.74 650.45 243.54 674.25
  C 242.63 681.09 244.07 686.10 246.56 692.99
  Q 246.72 693.43 246.81 693.47
  A 0.56 0.56 0.0 0 0 247.60 693.07
  C 249.00 685.45 251.27 676.27 255.36 669.64
  C 257.59 666.01 261.49 665.38 264.03 668.49
  A 2.02 2.01 33.0 0 1 264.42 670.31
  Q 261.76 679.99 260.74 690.03
  Q 259.52 701.98 260.48 707.52
  Q 264.51 730.87 276.68 749.28
  C 296.21 778.84 325.51 802.70 356.14 820.96
  Q 363.17 825.15 373.79 830.32
  Q 391.41 838.90 409.08 847.39
  Q 423.67 854.40 453.52 871.81
  C 454.48 872.37 456.07 873.75 457.50 874.30
  Q 458.39 874.63 457.75 873.94
  Q 445.95 861.06 431.30 851.69
  C 426.59 848.67 420.72 845.89 415.41 843.03
  Q 409.21 839.70 403.33 836.87
  Q 384.59 827.86 366.40 817.80
  C 349.40 808.40 333.37 797.43 321.04 782.20
  Q 318.60 779.20 316.96 776.53
  Q 315.99 774.95 317.43 776.13
  C 331.70 787.75 346.28 795.06 365.82 804.66
  Q 392.86 817.95 419.69 831.66
  Q 422.43 833.07 423.12 833.70
  Q 426.45 836.75 424.34 832.76
  Q 423.67 831.49 422.06 829.19
  Q 412.14 815.07 403.00 800.44
  Q 402.18 799.14 401.50 798.94
  Q 393.99 796.76 385.01 792.92
  C 361.35 782.82 339.33 772.03 318.94 756.81
  C 296.77 740.26 283.07 718.65 272.81 693.29
  Q 272.70 693.02 272.96 692.90
  L 273.19 692.79
  Q 273.23 692.77 273.26 692.81
  Q 280.60 706.35 291.39 717.36
  Q 302.65 728.85 306.85 732.40
  C 331.30 753.07 361.02 768.82 391.03 782.14
  Q 391.52 782.35 391.46 781.82
  Q 391.42 781.48 391.09 780.87
  Q 384.80 769.29 378.26 757.84
  C 374.85 751.88 371.69 745.49 368.37 739.34
  A 2.76 2.76 0.0 0 0 366.77 738.01
  C 332.52 727.18 295.36 695.20 281.37 661.89
  C 278.28 654.54 276.56 646.74 274.10 639.78
  Q 272.92 636.43 274.76 639.46
  C 288.50 662.07 303.70 680.97 325.78 698.19
  Q 342.54 711.26 361.38 721.05
  Q 362.75 721.76 362.23 720.30
  Q 353.74 696.56 348.08 671.99
  A 1.96 1.96 0.0 0 0 347.00 670.67
  C 319.63 658.04 295.06 634.07 278.55 609.54
  Q 277.16 607.48 278.88 609.27
  Q 284.90 615.52 292.39 621.62
  Q 316.12 640.95 343.85 655.21
  A 0.79 0.79 0.0 0 0 344.99 654.38
  Q 341.95 636.43 340.46 617.94
  C 340.36 616.77 339.94 616.07 339.00 615.47
  C 330.56 610.13 321.92 604.48 314.43 598.26
  Q 300.16 586.42 288.05 572.51
  Q 287.81 572.24 288.13 572.42
  L 337.97 601.78
  A 0.55 0.55 0.0 0 0 338.80 601.29
  L 338.50 583.79
  A 1.20 1.19 -71.9 0 0 338.03 582.86
  Q 310.19 561.59 288.89 533.35
  Q 282.17 524.44 275.61 515.42
  Q 275.52 515.29 275.65 515.18
  Q 275.79 515.06 275.93 515.19
  Q 304.67 542.37 337.47 564.48
  A 0.36 0.36 0.0 0 0 338.04 564.19
  C 338.39 550.94 337.82 537.40 338.47 524.42
  A 2.16 2.16 0.0 0 0 338.00 522.94
  C 324.29 505.86 310.46 487.02 303.11 466.49
  Q 302.16 463.84 304.01 465.96
  Q 305.66 467.85 307.92 470.07
  Q 322.69 484.57 337.52 499.34
  Q 338.62 500.43 338.76 498.89
  Q 339.32 492.83 339.20 486.00
  C 338.63 453.95 337.06 419.06 332.87 389.63
  Q 332.84 389.44 333.04 389.40
  L 333.04 389.40
  Z
  M 435.41 408.76
  L 405.55 371.18
  Q 404.29 369.60 403.29 371.35
  L 401.92 373.74
  Q 400.91 375.50 402.17 377.08
  C 446.39 432.74 482.84 493.06 503.27 562.02
  Q 503.93 564.27 504.28 565.91
  Q 504.60 567.39 505.24 566.01
  L 514.37 546.25
  Q 514.57 545.80 514.34 545.36
  C 494.29 507.95 473.15 470.59 458.68 430.28
  Q 454.67 419.10 450.47 407.99
  Q 449.08 404.32 448.30 402.98
  C 437.18 383.90 425.87 364.93 413.64 346.54
  A 0.43 0.43 0.0 0 0 412.93 346.52
  L 408.23 352.87
  A 2.69 2.69 0.0 0 0 408.02 355.72
  L 435.73 408.55
  Q 436.69 410.38 435.41 408.76
  Z
  M 805.24 427.49
  Q 805.02 426.19 805.76 427.28
  Q 808.82 431.79 810.93 436.83
  Q 811.37 437.90 811.72 436.80
  C 813.17 432.23 817.33 423.15 816.21 418.55
  Q 812.99 405.37 812.77 391.94
  Q 812.76 390.98 813.18 391.84
  L 823.39 412.98
  A 0.29 0.28 45.8 0 0 823.90 412.99
  C 830.91 398.79 838.04 384.89 847.11 372.12
  Q 847.27 371.89 847.49 371.84
  Q 848.01 371.70 847.79 372.19
  C 838.98 391.95 832.77 412.61 827.30 433.50
  Q 825.64 439.86 824.51 446.26
  A 0.45 0.45 0.0 0 0 825.03 446.78
  Q 830.98 445.73 837.01 446.19
  A 0.50 0.50 0.0 0 1 837.40 446.94
  C 835.43 450.34 828.67 453.69 825.14 455.29
  C 823.93 455.84 823.40 456.48 823.21 457.75
  Q 821.77 467.23 821.15 476.81
  C 820.91 480.47 821.92 482.17 824.12 484.81
  A 1.33 1.32 -39.2 0 0 825.97 484.99
  C 829.96 481.79 834.94 480.50 839.71 479.00
  Q 841.31 478.50 840.12 479.68
  L 829.54 490.26
  A 1.53 1.53 0.0 0 0 829.42 492.29
  Q 839.43 505.08 847.23 519.33
  Q 847.51 519.84 847.70 519.29
  Q 851.63 508.10 850.28 496.26
  C 848.50 480.60 846.31 465.74 847.81 449.91
  C 848.68 440.81 851.53 431.04 853.96 421.75
  Q 857.31 408.95 854.25 393.71
  C 852.11 383.04 849.91 376.04 848.36 369.04
  C 846.93 362.61 845.09 356.32 843.41 349.99
  Q 843.15 349.04 842.20 349.27
  Q 823.79 353.73 804.92 355.33
  A 1.68 1.67 4.9 0 0 803.44 356.57
  C 798.90 373.42 787.90 381.39 774.42 390.93
  C 771.35 393.11 766.69 397.36 766.26 401.25
  C 765.30 409.90 769.19 417.80 773.50 425.31
  A 1.42 1.42 0.0 0 0 775.97 425.30
  Q 780.70 416.97 786.49 408.53
  Q 787.31 407.34 787.83 406.82
  Q 789.18 405.48 788.41 407.22
  C 785.01 414.99 783.26 424.04 781.25 432.34
  Q 780.87 433.92 781.93 435.07
  Q 794.41 448.66 805.95 463.18
  A 0.32 0.32 0.0 0 0 806.52 463.03
  C 807.58 456.56 809.36 448.62 808.03 442.11
  Q 806.48 434.56 805.24 427.49
  Z
  M 236.04 390.08
  Q 234.48 388.00 236.40 389.74
  Q 243.40 396.07 249.39 403.82
  C 253.62 409.28 257.61 416.79 261.94 423.16
  Q 262.35 423.76 262.42 423.04
  Q 263.33 414.47 264.76 405.97
  Q 265.29 402.82 265.86 405.96
  C 267.06 412.55 268.36 419.97 268.23 426.77
  C 268.15 430.29 266.91 435.32 267.67 438.51
  Q 269.23 445.03 269.87 450.76
  Q 270.10 452.74 270.96 450.94
  C 278.07 436.19 288.71 418.32 284.72 401.21
  C 281.92 389.18 272.61 381.25 264.04 372.98
  A 2.51 2.50 66.8 0 0 262.27 372.27
  Q 247.65 372.35 233.27 369.73
  Q 232.98 369.68 232.92 369.97
  C 232.15 374.53 231.54 379.07 230.30 383.55
  C 226.88 395.93 223.36 407.55 223.94 419.89
  C 224.34 428.36 227.64 441.27 228.42 452.19
  C 229.35 465.20 226.81 478.80 228.57 491.06
  Q 230.13 501.92 234.46 512.20
  Q 234.67 512.69 234.94 512.23
  L 249.24 487.68
  A 2.19 2.19 0.0 0 0 248.66 484.82
  L 238.19 476.98
  A 0.25 0.25 0.0 0 1 238.36 476.54
  Q 246.21 477.21 253.51 480.15
  Q 253.87 480.29 254.11 479.99
  C 257.12 476.18 258.90 472.77 258.36 468.79
  Q 257.24 460.58 256.09 452.38
  C 255.67 449.37 255.44 448.39 252.45 447.14
  Q 246.70 444.73 241.05 441.37
  A 1.13 1.12 -49.2 0 1 240.92 439.53
  C 242.98 437.84 252.21 438.52 254.68 438.96
  Q 255.38 439.08 255.23 438.39
  Q 251.81 422.82 245.63 408.48
  C 242.41 401.02 240.18 395.61 236.04 390.08
  Z
  M 708.23 677.40
  C 711.23 665.99 715.07 653.45 717.11 643.09
  C 722.66 614.83 723.00 583.90 720.74 555.45
  C 718.76 530.54 712.05 506.86 713.32 481.61
  Q 713.33 481.45 713.17 481.44
  L 713.16 481.44
  Q 713.01 481.42 712.99 481.58
  Q 711.07 497.40 710.94 501.50
  C 710.53 514.76 708.65 529.77 709.74 541.50
  Q 710.82 553.25 712.09 564.99
  C 715.38 595.35 714.68 626.43 711.17 656.75
  Q 710.15 665.59 707.62 677.45
  Q 707.61 677.51 707.68 677.53
  L 707.93 677.59
  Q 708.17 677.64 708.23 677.40
  Z
  M 348.86 515.44
  Q 348.73 514.59 348.57 515.44
  Q 348.13 517.74 348.25 520.75
  Q 349.24 545.49 349.41 570.25
  C 349.78 622.95 357.25 675.07 376.06 724.73
  Q 380.50 736.45 388.52 750.50
  Q 388.88 751.13 389.06 750.43
  Q 389.27 749.64 388.98 748.76
  Q 382.44 728.38 376.09 707.95
  C 365.08 672.57 359.01 636.23 357.00 599.26
  Q 356.19 584.51 355.33 569.76
  C 354.26 551.53 351.61 533.53 348.86 515.44
  Z
  M 495.04 759.33
  Q 494.41 756.94 493.88 754.58
  A 0.04 0.04 0.0 0 0 493.80 754.59
  Q 498.57 796.54 513.30 836.25
  Q 517.06 846.38 521.09 856.39
  Q 521.11 856.44 521.16 856.42
  L 521.40 856.33
  A 0.30 0.30 0.0 0 0 521.60 855.95
  Q 517.79 842.45 513.96 828.93
  Q 504.11 794.24 495.04 759.33
  Z"
/>
<path fill="currentColor" d="
  M 750.78 253.66
  C 751.96 240.71 757.32 225.69 767.23 216.72
  A 1.19 1.19 0.0 0 1 768.67 216.60
  Q 777.11 221.98 784.05 229.20
  A 0.19 0.19 0.0 0 1 784.03 229.48
  C 773.47 238.17 762.99 246.51 751.47 254.07
  Q 750.70 254.58 750.78 253.66
  Z"
/>
<path fill="currentColor" d="
  M 307.08 225.44
  Q 313.56 238.95 316.45 253.64
  A 0.37 0.36 -43.7 0 1 316.44 253.86
  Q 316.28 254.45 315.81 254.11
  Q 299.82 242.64 284.60 230.16
  A 0.50 0.50 0.0 0 1 284.58 229.40
  C 288.85 225.46 294.56 220.59 300.50 219.59
  C 304.57 218.91 305.58 222.32 307.08 225.44
  Z"
/>
<path fill="currentColor" d="
  M 789.72 254.37
  C 793.96 251.54 799.96 247.36 804.79 245.88
  A 1.00 0.99 74.5 0 1 806.05 246.60
  L 810.13 263.40
  A 1.02 1.02 0.0 0 1 809.39 264.62
  Q 790.90 269.21 771.95 271.08
  A 0.73 0.73 0.0 0 1 771.17 270.21
  Q 771.27 269.74 771.73 269.20
  C 776.85 263.18 782.41 259.26 789.72 254.37
  Z"
/>
<path fill="currentColor" d="
  M 290.67 270.07
  C 293.49 272.19 292.60 274.46 292.46 277.45
  Q 292.40 278.69 291.17 278.51
  L 257.67 273.65
  A 0.69 0.69 0.0 0 1 257.09 272.88
  L 259.68 253.80
  A 0.46 0.45 12.1 0 1 260.26 253.43
  C 271.12 256.65 281.65 263.31 290.67 270.07
  Z"
/>

<path fill="currentColor" d="
  M 635.48 521.82
  C 643.55 537.65 647.03 553.00 644.18 570.75
  A 0.01 0.00 41.4 0 1 644.17 570.75
  C 642.41 561.46 640.14 552.52 638.80 543.00
  Q 637.28 532.17 635.05 521.98
  Q 634.66 520.21 635.48 521.82
  Z"
/>
<path fill="currentColor" d="
  M 579.18 567.38
  C 572.50 557.77 568.03 547.03 563.01 536.53
  Q 562.96 536.41 563.07 536.35
  L 563.07 536.35
  Q 563.18 536.28 563.26 536.39
  C 572.75 549.82 581.28 562.07 586.44 577.88
  Q 586.74 578.77 586.23 577.98
  Q 582.88 572.69 579.18 567.38
  Z"
/>
<path fill="currentColor" d="
  M 420.44 595.29
  Q 414.69 574.26 420.63 553.01
  Q 420.86 552.18 420.94 553.04
  C 421.66 560.99 422.81 569.58 422.81 577.01
  C 422.81 584.02 421.59 590.89 421.60 597.86
  Q 421.60 600.00 421.12 597.91
  Q 420.92 597.07 420.44 595.29
  Z"
/>
<path fill="currentColor" d="
  M 474.45 695.48
  C 467.03 707.90 462.68 719.03 451.02 725.55
  Q 449.32 726.50 450.26 724.80
  C 456.29 713.94 465.65 704.18 474.39 695.43
  Q 474.41 695.41 474.39 695.38
  Q 473.83 694.79 474.44 695.39
  Q 474.48 695.43 474.45 695.48
  Z"
/>
</svg>
